<?xml version="1.0" encoding="UTF-8"?>
<svg id="Layer_1" xmlns="http://www.w3.org/2000/svg" xmlns:xlink="http://www.w3.org/1999/xlink" version="1.1" viewBox="0 0 552.97 322.55">
  <!-- Generator: Adobe Illustrator 30.2.1, SVG Export Plug-In . SVG Version: 2.1.1 Build 1)  -->
  <defs>
    <style>
      .st0 {
        fill: url(#linear-gradient2);
      }

      .st1 {
        fill: url(#linear-gradient1);
      }

      .st2 {
        fill: url(#linear-gradient3);
      }

      .st3 {
        fill: url(#linear-gradient5);
      }

      .st4 {
        fill: url(#linear-gradient4);
      }

      .st5 {
        fill: url(#linear-gradient);
      }
    </style>
    <linearGradient id="linear-gradient" x1="598.12" y1="-73.25" x2="598.12" y2="-8.8" gradientTransform="translate(-1521.55 8.11) scale(2.71 -2.71)" gradientUnits="userSpaceOnUse">
      <stop offset="0" stop-color="#fecd46"/>
      <stop offset=".46" stop-color="#fff"/>
      <stop offset="1" stop-color="#fecd46"/>
    </linearGradient>
    <linearGradient id="linear-gradient1" x1="626.49" x2="626.49" xlink:href="#linear-gradient"/>
    <linearGradient id="linear-gradient2" x1="648.37" x2="648.37" xlink:href="#linear-gradient"/>
    <linearGradient id="linear-gradient3" x1="677.85" x2="677.85" xlink:href="#linear-gradient"/>
    <linearGradient id="linear-gradient4" x1="707.7" x2="707.7" xlink:href="#linear-gradient"/>
    <linearGradient id="linear-gradient5" x1="736.91" y1="-73.25" x2="736.91" y2="-8.8" xlink:href="#linear-gradient"/>
  </defs>
  <g id="g129799">
    <path id="path71576" class="st5" d="M118.71,292.54h-5.23l-14.31-150.61-20.48,150.61h-5.14L49.85,63.62c-1.5-14.46-4.49-14.81-8.66-14.81v-13.05c4.38,1.06,9.5,2.11,13.99,2.11,4.91,0,9.08-.7,14.73-2.11v13.05c-1.5.71-3.11,0-5.77,1.77-1.81,1.41-1.92,4.59-1.28,11.29l17.19,178.47,16.55-124.16-4.27-42.33c-.96-8.81-1.92-15.52-3.31-19.39-2.36-6.35-4.9-5.64-7.37-5.64v-13.05c5.22,1.06,10.68,2.11,15.68,2.11,5.45,0,10.37-1.06,16.13-2.11v13.05c-1.28-.35-2.99.35-4.69.71-4.91,1.41-4.8,5.64-3.85,17.27l14.73,169.67,16.76-153.08c3.74-33.52,1.61-34.57-7.79-34.57v-13.05c4.8,1.42,8.22,2.11,12.28,2.11,3.63,0,7.9-1.06,11.52-2.11v13.05c-4.8,0-6.51,6.7-7.79,17.64l-25.95,226.09Z"/>
    <path id="path71578" class="st1" d="M167.61,76.68c0-26.46-3.11-29.64-8.87-27.87v-13.05c4.91,1.06,9.92,2.11,14.84,2.11s9.83-1.06,14.74-2.11v13.05c-5.98-1.77-8.77,2.82-8.77,27.87v174.24c0,26.44,3.96,26.09,9.63,25.04v13.05c-7.17-1.42-11.01-2.12-16.23-2.12-4.93,0-10.15,1.07-14.96,2.12v-13.05c5.67,1.05,9.62,1.41,9.62-25.04V76.68Z"/>
    <path id="path71580" class="st0" d="M267.65,223.75c-.54,17.98-.76,28.57-.76,43.04,0,7.4,0,14.81.11,22.22-13.02-2.12-19.74-2.12-28.18-2.12-11.11,0-19.55,0-40.91,2.12v-7.05l51.47-226.45-24.02,1.42c-10.24.35-11.41.35-13.55,4.59-3.52,7.41-4.39,22.21-5.55,39.14h-4.93c.66-29.62.75-36.32.86-64.9,17.4,2.11,25.84,2.11,36.95,2.11,8.43,0,15.16,0,28.19-2.11v7.77l-51.9,226.44c16.01-1.05,32.88-1.42,38.32-3.53,6.31-2.82,8.44-25.05,9.2-42.68h4.7Z"/>
    <path id="path71582" class="st2" d="M321.64,175.78l-11.21-95.94-11.64,95.94h22.85ZM323.57,192h-26.71l-7.58,62.8c-.63,5.28-.96,8.1-.96,10.93,0,11.27,5.13,10.93,9.61,10.22v13.05c-5.01-1.42-8.76-2.12-13.12-2.12-4.07,0-8.34,1.07-12.29,2.12v-13.05c5.68-.71,7.59-1.06,10.46-23.99l28.94-222.56h4.79l27.89,230.69c1.38,11.99,2.23,16.91,7.99,15.86v13.05c-4.38-1.06-9.92-2.12-14.42-2.12-5.12,0-8.64.36-16.21,2.12v-13.05c8.65,0,11.31-1.06,8.32-23.99l-6.71-59.96Z"/>
    <path id="path71584" class="st4" d="M379.29,157.44c5.97,1.06,14.09-1.06,17.18-3.17,7.69-5.3,11.54-25.74,11.54-50.44,0-20.11-2.24-34.91-4.91-42.67-4.07-11.65-10.03-11.65-15.26-11.65-8.01,0-8.54,4.24-8.54,15.17v92.76ZM379.29,250.92c0,9.17.53,20.8,3.31,23.98,1.38,1.42,3.41,1.42,6.71,1.06v13.05c-5.11-1.06-10.36-2.12-15.57-2.12s-10.16,1.07-15.81,2.12v-13.05c5.87,1.05,9.71,1.41,9.71-25.04V74.56c0-25.4-3.2-26.8-9.29-25.75v-13.05c4.27.71,12.6,2.11,16.01,2.11,5.67,0,9.71-2.11,12.93-1.75,3.2-.36,6.31-.36,9.4,0,16.76,1.41,22.64,30.67,22.64,61.73,0,17.62-1.92,35.63-7.05,49.02-4.91,13.05-9.82,16.58-12.59,17.99,2.44,2.47,4.68,4.94,8.64,20.1,2.89,10.93,4.6,28.22,10.15,63.48,4.16,28.23,6.29,27.88,10.25,27.17v13.4h-9.08c-5.76,0-7.58-2.46-9.29-9.16-4.7-18-7.05-57.15-12.49-87.47-3.09-17.28-5.76-19.78-10.45-19.78h-8.12v78.32Z"/>
    <path id="path71586" class="st3" d="M455.17,250.21c0,20.45,0,21.51,9.82,21.51,6.72,0,19.54,0,26.7-34.2,5.55-26.11,5.77-59.96,5.77-72.32,0-21.87-.75-53.25-5.77-77.95-7.37-35.62-20.4-35.62-25.42-35.62-10.69,0-11.2.35-11.1,15.88v182.7ZM443.31,80.91c0-29.63-1.28-32.45-8.87-32.45v-12.7c1.18.35,3.53.71,6.31,1.42,2.79.35,5.97.7,9.08.7,2.87.71,19.1-3.88,25.51-3.17,6.72.72,16.76,3.53,24.87,28.92,7.8,24.7,10.9,60.31,10.9,95.59,0,22.23-1.16,55.02-8.22,85-6.63,28.23-15.91,43.39-27.33,45.51-4.68,1.06-8.21-.36-14.43-1.42-5.11-.71-9.81-1.75-11.3-1.42-6.19,0-13.02,1.42-16.22,2.12v-13.05c6.71,1.05,9.7,1.05,9.7-28.57V80.91Z"/>
  </g>
</svg>